# xmcd
#
# Track frame offsets:
#	150
#	13624
#	48129
#
# Disc length: 1120 seconds
#
# Revision: 1
# Processed by: cddbd v1.5.2PL0 Copyright (c) Steve Scherf et al.
# Submitted via: audiograbber 1.83.01
#
DISCID=17045e03
DTITLE=Moby - (Maxi) In This World - Remixes
DYEAR=2002
DGENRE=Ambient
TTITLE0=In This World [T&F vs. Moltosugo Club Mix (Edit)]
TTITLE1=In This World [ATFC's Southern Friend Vocal]
TTITLE2=In This World [Push Vocal Club Mix]
EXTD=
EXTT0=
EXTT1=
EXTT2=
PLAYORDER=
